<?xml version="1.0" encoding="UTF-8"?>
<svg version="1.1" xmlns="http://www.w3.org/2000/svg" width="1024" height="1024">
<path d="M0 0 C337.92 0 675.84 0 1024 0 C1024 337.92 1024 675.84 1024 1024 C686.08 1024 348.16 1024 0 1024 C0 686.08 0 348.16 0 0 Z " fill="#13161C" transform="translate(0,0)"/>
<path d="M0 0 C3.23260786 1.55857879 5.9181931 3.11191201 8.6796875 5.37890625 C12.75959502 8.67855496 15.65893226 9.68974844 20.9453125 9.3515625 C24.69440266 8.7100832 27.05427367 6.71889835 30.01953125 4.46484375 C37.75670905 -1.11066938 37.75670905 -1.11066938 43.0546875 -0.6328125 C47.20763682 0.71814692 49.93470045 4.02242788 53 7 C55.09293959 8.80753874 57.19372083 10.59849703 59.3125 12.375 C59.87138916 12.84776367 60.43027832 13.32052734 61.00610352 13.80761719 C64.51140268 16.76955708 68.05583858 19.67755551 71.625 22.5625 C76.33067473 26.38841815 80.79408944 30.43181877 85.2578125 34.53515625 C88.78239274 37.70326185 92.43995385 40.68175958 96.125 43.66015625 C99.24024597 46.19552627 102.31248991 48.77643734 105.375 51.375 C105.91737305 51.83495361 106.45974609 52.29490723 107.01855469 52.76879883 C109.23534731 54.65006097 111.45064447 56.53308 113.66601562 58.41601562 C120.12406926 63.90270514 126.61497616 69.33777129 133.1875 74.6875 C136.88014364 77.72367366 140.52121788 80.8184997 144.1640625 83.9140625 C147.5805954 86.81244823 151.02504838 89.671551 154.5 92.5 C159.10248466 96.24620845 163.63722411 100.06522787 168.1574707 103.90966797 C171.63243023 106.85958904 175.14453073 109.75664406 178.6875 112.625 C189.81948297 121.71066258 189.81948297 121.71066258 194 126 C194 126.66 194 127.32 194 128 C194.55945313 128.23976563 195.11890625 128.47953125 195.6953125 128.7265625 C198.49499114 130.27350358 200.54271084 132.18802481 202.875 134.375 C205.68593072 136.9655471 208.38239185 139.40700966 211.625 141.4375 C212.800625 142.2109375 212.800625 142.2109375 214 143 C214 143.66 214 144.32 214 145 C214.804375 145.268125 215.60875 145.53625 216.4375 145.8125 C217.283125 146.204375 218.12875 146.59625 219 147 C219.33 147.99 219.66 148.98 220 150 C221.84971696 151.05021103 221.84971696 151.05021103 224 152 C226.25 153.5 226.25 153.5 228 155 C228 155.66 228 156.32 228 157 C228.763125 157.268125 229.52625 157.53625 230.3125 157.8125 C232.98816673 158.99477134 234.02287723 159.93821454 236 162 C237.15618813 163.03268621 238.32316014 164.05341143 239.5 165.0625 C240.0878125 165.56910156 240.675625 166.07570313 241.28125 166.59765625 C243.15799158 168.17481628 243.15799158 168.17481628 246 170 C246.875 171.75 246.875 171.75 247 174 C246.04039484 176.01969254 245.04299947 178.0220839 244 180 C186.72373446 180.06860531 129.44747287 180.1215039 72.17117436 180.15319599 C65.41546708 180.15693812 58.65975989 180.16082776 51.90405273 180.16479492 C51.2317658 180.1651872 50.55947886 180.16557948 49.8668196 180.16598364 C28.06196223 180.17877588 6.25712814 180.20131591 -15.54771512 180.22889166 C-38.58277558 180.25797042 -61.61782487 180.27598293 -84.65290469 180.28226548 C-98.45836523 180.28639024 -112.26375899 180.29943695 -126.06919899 180.3237494 C-135.52477412 180.33955729 -144.98031452 180.34441163 -154.43590192 180.34050413 C-159.89846321 180.33857485 -165.36090748 180.34161677 -170.82344818 180.35761642 C-175.81795914 180.37213912 -180.81227358 180.37300239 -185.80679329 180.36269668 C-187.61975921 180.36142164 -189.43273703 180.36529163 -191.24567924 180.37464955 C-193.6983776 180.38658007 -196.15035395 180.38026734 -198.60303974 180.36914349 C-199.31711415 180.37702453 -200.03118856 180.38490557 -200.76690158 180.39302543 C-203.62860931 180.36342449 -205.54263535 180.32132604 -207.92324752 178.64880353 C-209.75276153 175.84731553 -209.62986584 174.27530236 -209 171 C-205.1008315 165.63381761 -199.20143998 161.63665957 -194.08203125 157.51171875 C-190.71582057 154.76840637 -187.41526012 151.95845613 -184.125 149.125 C-182.93364218 148.10020411 -181.7422358 147.07546467 -180.55078125 146.05078125 C-179.96119629 145.54369629 -179.37161133 145.03661133 -178.76416016 144.51416016 C-171.27305356 138.08462195 -163.71837809 131.73741518 -156.06640625 125.5 C-146.25165865 117.49816756 -136.47533864 109.46127119 -126.88745117 101.18823242 C-122.60108596 97.49556373 -118.23638289 93.90953434 -113.84375 90.34375 C-110.52313514 87.60697951 -107.25953218 84.8089705 -104 82 C-99.87531796 78.44546839 -95.72792288 74.93207857 -91.5 71.5 C-84.88958657 66.12843418 -78.45106131 60.56078007 -72 55 C-69.60549563 52.93595014 -67.20996292 50.87311296 -64.8125 48.8125 C-64.23040771 48.31218262 -63.64831543 47.81186523 -63.04858398 47.29638672 C-59.4906972 44.24848878 -55.89053384 41.26179324 -52.25 38.3125 C-47.86848205 34.75732096 -43.68289319 31.03230463 -39.51171875 27.234375 C-36.12436339 24.2210511 -32.60294243 21.38912916 -29.078125 18.5390625 C-24.68864888 14.91830174 -20.40601731 11.17805236 -16.1262207 7.42871094 C-6.71143664 -0.79627214 -6.71143664 -0.79627214 0 0 Z " fill="#107A87" transform="translate(493,553)"/>
<path d="M0 0 C2.53989456 2.16335841 3.82574032 3.92442926 4.36539757 7.25531769 C4.52153603 10.16722758 4.53759066 13.05364108 4.5146637 15.96972656 C4.52160922 17.0893642 4.52855475 18.20900185 4.53571075 19.3625679 C4.55403754 23.12212166 4.54370014 26.88104845 4.53344727 30.640625 C4.54050282 33.33274299 4.5491091 36.02481611 4.55955505 38.71691895 C4.58120201 45.27458787 4.58106652 51.83208331 4.57292951 58.38977623 C4.5666311 63.7190557 4.56776506 69.04828455 4.57420158 74.37756348 C4.57510324 75.13589139 4.57600489 75.89421931 4.57693387 76.67552686 C4.57878506 78.21602855 4.58064762 79.75653022 4.58252143 81.29703188 C4.59910213 95.74423664 4.59037821 110.19134376 4.57353585 124.63854265 C4.55883653 137.85897905 4.57347 151.07918822 4.60230602 164.29959536 C4.63169035 177.87238156 4.64267526 191.44506286 4.63312382 205.01787949 C4.63210125 206.55273181 4.63110665 208.08758416 4.6301403 209.62243652 C4.62966391 210.37762424 4.62918752 211.13281195 4.6286967 211.91088414 C4.6265314 217.23412755 4.63634268 222.55727176 4.65091133 227.88049316 C4.66841675 234.36728983 4.66834327 240.85379671 4.64555968 247.34058189 C4.63440107 250.65072864 4.63398529 253.96025792 4.64986038 257.270401 C4.66570605 260.85751744 4.65091779 264.44322454 4.62818909 268.03027344 C4.64002482 269.07841846 4.65186054 270.12656349 4.66405493 271.20647049 C4.60237692 275.97963589 4.56458926 278.25020331 1.62480068 282.15435791 C-1 284 -1 284 -3.625 284.5 C-6.47827186 283.89931119 -6.99879145 283.05825012 -9 281 C-11.35521543 279.17358941 -13.74284781 277.39645258 -16.13671875 275.62109375 C-16.75160156 275.08613281 -17.36648438 274.55117188 -18 274 C-18 273.34 -18 272.68 -18 272 C-18.57621094 271.74347656 -19.15242187 271.48695313 -19.74609375 271.22265625 C-22.21951403 269.8809222 -23.99825899 268.34740523 -26.0625 266.4375 C-32.79994029 260.3296238 -39.89664115 254.67368123 -47 249 C-55.42452452 242.27097727 -63.7158145 235.41124985 -71.88012695 228.36987305 C-75.18163166 225.53103986 -78.51575829 222.7566953 -81.9375 220.0625 C-86.92357973 216.12785059 -91.68710796 211.95596497 -96.47021484 207.77978516 C-100.69899948 204.098167 -105.00842855 200.55482536 -109.4140625 197.0859375 C-113.27053636 193.97512626 -117.00674294 190.72812427 -120.75805664 187.49194336 C-124.2987072 184.44290313 -127.87136413 181.44459259 -131.5 178.5 C-136.34596789 174.5662143 -141.08098528 170.51552241 -145.80859375 166.44140625 C-149.33317903 163.41041716 -152.89048832 160.43007419 -156.5 157.5 C-161.34596789 153.5662143 -166.08098528 149.51552241 -170.80859375 145.44140625 C-175.19049048 141.67316683 -179.64526871 138.00524928 -184.1328125 134.36328125 C-188.18716634 131.02147733 -192.16716972 127.59526053 -196.14257812 124.16015625 C-199.37644905 121.37014996 -202.64500561 118.64504239 -206 116 C-205.94140625 113.28515625 -205.94140625 113.28515625 -205 110 C-202.62678511 108.15070115 -200.5628734 106.83015412 -197.9375 105.4375 C-197.18799072 105.01823242 -196.43848145 104.59896484 -195.66625977 104.16699219 C-193.12332402 102.75382187 -190.56388178 101.37477431 -188 100 C-186.1248071 98.98603374 -184.24981288 97.97169999 -182.375 96.95703125 C-179.37385373 95.33470902 -176.37160503 93.71464096 -173.36547852 92.1015625 C-166.11123353 88.19468627 -158.97347816 84.1199556 -151.875 79.9375 C-143.40579555 74.94838613 -134.8626152 70.14058103 -126.21606445 65.46630859 C-115.72802957 59.79034242 -105.36789022 53.89169013 -95 48 C-79.39463618 39.13350271 -63.71835903 30.40530229 -47.9947052 21.75106812 C-36.6123272 15.48515547 -25.25974995 9.1666777 -13.94604492 2.77758789 C-8.50872858 -0.29028483 -6.29117155 -1.51855865 0 0 Z " fill="#1AB9B1" transform="translate(761,425)"/>
<path d="M0 0 C4.97399934 1.04771271 9.05267573 3.72025964 13.34619141 6.34619141 C15.39366076 7.55182121 17.44185054 8.75622829 19.49072266 9.95947266 C20.50859863 10.56484863 21.52647461 11.17022461 22.57519531 11.79394531 C26.84310327 14.30369215 31.18251796 16.67230351 35.53369141 19.03369141 C43.60202185 23.44658731 51.61530002 27.9521639 59.61572266 32.48681641 C66.74238727 36.52525969 73.88402529 40.53612389 81.03369141 44.53369141 C94.76097972 52.21172018 108.45277203 59.95193018 122.13525391 67.70947266 C132.40934032 73.53062358 142.70633666 79.30750997 153.03369141 85.03369141 C161.73682563 89.8603313 170.42899981 94.70525652 179.09619141 99.59619141 C180.00498047 100.10794922 180.91376953 100.61970703 181.85009766 101.14697266 C187.80362638 104.5135514 193.68520625 107.98789532 199.53369141 111.53369141 C198.77587584 116.38250333 197.39765173 118.042553 193.65869141 121.28369141 C192.9188501 121.93156616 192.9188501 121.93156616 192.1640625 122.5925293 C187.98951006 126.22121955 183.70567282 129.72044047 179.40478516 133.19775391 C171.05946952 139.98754813 162.92958774 147.04290809 154.76708984 154.05029297 C149.2514472 158.78279389 143.70462308 163.47776339 138.15136719 168.16601562 C136.50460162 169.55828558 134.86059073 170.95374613 133.21728516 172.35009766 C128.08724993 176.70640038 122.94155041 181.03539925 117.72119141 185.28369141 C114.60935318 187.8162697 111.53909105 190.37577205 108.53369141 193.03369141 C104.61947281 196.49535328 100.5754641 199.78395096 96.52197266 203.08056641 C92.76760457 206.16258361 89.06700742 209.30497084 85.36645508 212.45117188 C81.99594567 215.31145057 78.5938333 218.12592068 75.15869141 220.90869141 C70.7055288 224.53094321 66.3601963 228.26236709 62.03369141 232.03369141 C56.85020987 236.55202443 51.60564804 240.97164681 46.26416016 245.30322266 C39.14012497 251.12271349 32.16654233 257.1256015 25.19311523 263.12402344 C19.47946913 268.03796233 13.73541797 272.89670367 7.86181641 277.61962891 C6.46185383 278.77060485 5.0869684 279.95471796 3.76806641 281.19775391 C1.06587886 283.74349901 -0.41895978 284.52646871 -4.15380859 285.09619141 C-7.46630859 284.53369141 -7.46630859 284.53369141 -9.14957005 282.79684776 C-10.66098848 280.19908357 -10.84292911 278.74586438 -10.84662533 275.76068974 C-10.85506527 274.79787525 -10.86350521 273.83506077 -10.87220091 272.84307009 C-10.86619086 271.78812127 -10.86018082 270.73317246 -10.85398865 269.64625549 C-10.85937419 268.52338872 -10.86475972 267.40052195 -10.87030846 266.24362892 C-10.88465797 262.46724063 -10.8774669 258.69119941 -10.87036133 254.91479492 C-10.87441644 252.21298306 -10.88292295 249.51118912 -10.89115906 246.80938721 C-10.90836885 240.2241992 -10.90918257 233.63910652 -10.90394615 227.05390186 C-10.89990725 221.70219911 -10.90134468 216.35052457 -10.90669441 210.99882317 C-10.90744283 210.2375844 -10.90819126 209.47634563 -10.90896236 208.69203902 C-10.91049381 207.14565881 -10.91203216 205.5992786 -10.91357733 204.0528984 C-10.92731026 189.54610256 -10.92185912 175.03936062 -10.91039211 160.532566 C-10.90045896 147.25713243 -10.91340037 133.98183822 -10.9373263 120.70642615 C-10.96170109 107.07944131 -10.97132917 93.45252142 -10.96467358 79.82551521 C-10.96117773 72.17328873 -10.96343744 64.52116945 -10.98092461 56.86895943 C-10.99562637 50.35472848 -10.99630874 43.84068021 -10.9788537 37.32645292 C-10.9703242 34.00215352 -10.97039733 30.67844965 -10.98350525 27.35412407 C-10.99662747 23.75180832 -10.98524434 20.15038752 -10.96751404 16.54811096 C-10.97711904 15.49539287 -10.98672405 14.44267477 -10.99662012 13.35805613 C-10.95113973 8.88419429 -10.91639995 6.27576058 -8.55868626 2.38857937 C-5.56141987 -0.26849035 -3.87263953 -0.23003431 0 0 Z " fill="#62EADB" transform="translate(269.46630859375,424.46630859375)"/>
<path d="M0 0 C3.23260786 1.55857879 5.9181931 3.11191201 8.6796875 5.37890625 C12.75959502 8.67855496 15.65893226 9.68974844 20.9453125 9.3515625 C24.69440266 8.7100832 27.05427367 6.71889835 30.01953125 4.46484375 C37.75670905 -1.11066938 37.75670905 -1.11066938 43.0546875 -0.6328125 C47.20763682 0.71814692 49.93470045 4.02242788 53 7 C55.09293959 8.80753874 57.19372083 10.59849703 59.3125 12.375 C59.87138916 12.84776367 60.43027832 13.32052734 61.00610352 13.80761719 C64.51140268 16.76955708 68.05583858 19.67755551 71.625 22.5625 C76.33067473 26.38841815 80.79408944 30.43181877 85.2578125 34.53515625 C88.78239274 37.70326185 92.43995385 40.68175958 96.125 43.66015625 C99.24024597 46.19552627 102.31248991 48.77643734 105.375 51.375 C105.91737305 51.83495361 106.45974609 52.29490723 107.01855469 52.76879883 C109.23534731 54.65006097 111.45064447 56.53308 113.66601562 58.41601562 C120.12406926 63.90270514 126.61497616 69.33777129 133.1875 74.6875 C136.88014364 77.72367366 140.52121788 80.8184997 144.1640625 83.9140625 C147.5805954 86.81244823 151.02504838 89.671551 154.5 92.5 C159.10248466 96.24620845 163.63722411 100.06522787 168.1574707 103.90966797 C171.63243023 106.85958904 175.14453073 109.75664406 178.6875 112.625 C189.81948297 121.71066258 189.81948297 121.71066258 194 126 C194 126.66 194 127.32 194 128 C194.55945313 128.23976563 195.11890625 128.47953125 195.6953125 128.7265625 C198.49499114 130.27350358 200.54271084 132.18802481 202.875 134.375 C205.68593072 136.9655471 208.38239185 139.40700966 211.625 141.4375 C212.800625 142.2109375 212.800625 142.2109375 214 143 C214 143.66 214 144.32 214 145 C214.804375 145.268125 215.60875 145.53625 216.4375 145.8125 C217.283125 146.204375 218.12875 146.59625 219 147 C219.33 147.99 219.66 148.98 220 150 C221.84971696 151.05021103 221.84971696 151.05021103 224 152 C226.25 153.5 226.25 153.5 228 155 C228 155.66 228 156.32 228 157 C228.763125 157.268125 229.52625 157.53625 230.3125 157.8125 C232.98816673 158.99477134 234.02287723 159.93821454 236 162 C237.15618813 163.03268621 238.32316014 164.05341143 239.5 165.0625 C240.0878125 165.56910156 240.675625 166.07570313 241.28125 166.59765625 C243.15799158 168.17481628 243.15799158 168.17481628 246 170 C246.875 171.75 246.875 171.75 247 174 C246.04039484 176.01969254 245.04299947 178.0220839 244 180 C186.72373446 180.06860531 129.44747287 180.1215039 72.17117436 180.15319599 C65.41546708 180.15693812 58.65975989 180.16082776 51.90405273 180.16479492 C51.2317658 180.1651872 50.55947886 180.16557948 49.8668196 180.16598364 C28.06196223 180.17877588 6.25712814 180.20131591 -15.54771512 180.22889166 C-38.58277558 180.25797042 -61.61782487 180.27598293 -84.65290469 180.28226548 C-98.45836523 180.28639024 -112.26375899 180.29943695 -126.06919899 180.3237494 C-135.52477412 180.33955729 -144.98031452 180.34441163 -154.43590192 180.34050413 C-159.89846321 180.33857485 -165.36090748 180.34161677 -170.82344818 180.35761642 C-175.81795914 180.37213912 -180.81227358 180.37300239 -185.80679329 180.36269668 C-187.61975921 180.36142164 -189.43273703 180.36529163 -191.24567924 180.37464955 C-193.6983776 180.38658007 -196.15035395 180.38026734 -198.60303974 180.36914349 C-199.31711415 180.37702453 -200.03118856 180.38490557 -200.76690158 180.39302543 C-203.62860931 180.36342449 -205.54263535 180.32132604 -207.92324752 178.64880353 C-209.75276153 175.84731553 -209.62986584 174.27530236 -209 171 C-205.1008315 165.63381761 -199.20143998 161.63665957 -194.08203125 157.51171875 C-190.71582057 154.76840637 -187.41526012 151.95845613 -184.125 149.125 C-182.93364218 148.10020411 -181.7422358 147.07546467 -180.55078125 146.05078125 C-179.96119629 145.54369629 -179.37161133 145.03661133 -178.76416016 144.51416016 C-171.27305356 138.08462195 -163.71837809 131.73741518 -156.06640625 125.5 C-146.25165865 117.49816756 -136.47533864 109.46127119 -126.88745117 101.18823242 C-122.60108596 97.49556373 -118.23638289 93.90953434 -113.84375 90.34375 C-110.52313514 87.60697951 -107.25953218 84.8089705 -104 82 C-99.87531796 78.44546839 -95.72792288 74.93207857 -91.5 71.5 C-84.88958657 66.12843418 -78.45106131 60.56078007 -72 55 C-69.60549563 52.93595014 -67.20996292 50.87311296 -64.8125 48.8125 C-64.23040771 48.31218262 -63.64831543 47.81186523 -63.04858398 47.29638672 C-59.4906972 44.24848878 -55.89053384 41.26179324 -52.25 38.3125 C-47.86848205 34.75732096 -43.68289319 31.03230463 -39.51171875 27.234375 C-36.12436339 24.2210511 -32.60294243 21.38912916 -29.078125 18.5390625 C-24.68864888 14.91830174 -20.40601731 11.17805236 -16.1262207 7.42871094 C-6.71143664 -0.79627214 -6.71143664 -0.79627214 0 0 Z M50.66796875 23.73046875 C49.84941406 24.54128906 49.03085937 25.35210938 48.1875 26.1875 C38.78512431 35.04083185 29.14926588 38.64649165 16.16796875 38.28125 C4.73899792 37.26659414 -4.58372469 31.53035159 -13 24 C-16.84321219 26.10493954 -19.61456103 28.4534673 -22.625 31.625 C-26.87158858 35.96567843 -31.31834825 39.78591033 -36.0625 43.56640625 C-39.99984515 46.82832916 -43.71464018 50.30668815 -47.40942383 53.83935547 C-50.73586753 56.98055945 -54.17636408 59.46432565 -58 62 C-59.92794724 63.69328699 -61.82292349 65.42467391 -63.6875 67.1875 C-68.46006569 71.64887645 -73.38490249 75.84299168 -78.47265625 79.9453125 C-82.06774602 82.86805936 -85.53521994 85.9250077 -89 89 C-92.75141995 92.31483229 -96.51886714 95.60494709 -100.359375 98.81640625 C-100.94887939 99.31043945 -101.53838379 99.80447266 -102.14575195 100.31347656 C-103.32669476 101.30148431 -104.51007577 102.28658606 -105.69604492 103.26855469 C-108.7878055 105.76416948 -108.7878055 105.76416948 -111 109 C-112.051875 109.5878125 -112.051875 109.5878125 -113.125 110.1875 C-116.28380202 112.17891867 -118.53509536 114.45081463 -121.125 117.11328125 C-125.72154814 121.73855781 -130.76423386 125.83597512 -135.875 129.875 C-143.9814772 136.30772073 -152.02297915 143.15338473 -158.63671875 151.14453125 C-159.41660156 152.08683594 -160.19648438 153.02914062 -161 154 C-19.80340078 155.60574144 -19.80340078 155.60574144 121.39974213 156.18847656 C125.20971314 156.18751022 129.01968001 156.18846071 132.82965088 156.18969727 C158.23627465 156.19294185 183.61280989 156.06551808 209 155 C209.33 154.01 209.66 153.02 210 152 C206.88150469 148.673605 203.58373698 145.82419869 200 143 C196.42358169 140.17901421 193.1803356 137.26629061 190 134 C188.31244755 132.50555056 186.59689817 131.04845708 184.875 129.59375 C182.95588563 127.96250279 181.07166157 126.29643365 179.1875 124.625 C175.28292541 121.18652923 171.21518237 117.98079131 167.1015625 114.796875 C165 113 165 113 163 110 C161.34051852 108.98812105 159.67249086 107.9902283 158 107 C155.92306344 105.31971976 153.89122268 103.62437414 151.875 101.875 C150.71549993 100.88074467 149.55533386 99.88726554 148.39453125 98.89453125 C147.82041504 98.40291504 147.24629883 97.91129883 146.65478516 97.40478516 C144.31913624 95.42199911 141.94275155 93.49138533 139.5625 91.5625 C134.69870975 87.60491812 129.94118769 83.53457554 125.19165039 79.44165039 C121.66701081 76.41054711 118.10960118 73.43014684 114.5 70.5 C110.27206923 67.06791502 106.12484686 63.55434787 102 60 C97.07105111 55.75586674 92.09633934 51.58129112 87.046875 47.48046875 C83.91401224 44.92999714 80.79671294 42.36144471 77.68164062 39.78930664 C74.77370299 37.38975192 71.86059909 34.99651419 68.94726562 32.60351562 C67.23610098 31.19442217 65.53119273 29.77822804 63.828125 28.359375 C62.95671875 27.64265625 62.0853125 26.9259375 61.1875 26.1875 C60.45917969 25.58292969 59.73085938 24.97835937 58.98046875 24.35546875 C55.57544481 22.02500858 54.17458302 21.12840824 50.66796875 23.73046875 Z " fill="#3AC1C0" transform="translate(493,553)"/>
<path d="M0 0 C2.53989456 2.16335841 3.82574032 3.92442926 4.36539757 7.25531769 C4.52153603 10.16722758 4.53759066 13.05364108 4.5146637 15.96972656 C4.52160922 17.0893642 4.52855475 18.20900185 4.53571075 19.3625679 C4.55403754 23.12212166 4.54370014 26.88104845 4.53344727 30.640625 C4.54050282 33.33274299 4.5491091 36.02481611 4.55955505 38.71691895 C4.58120201 45.27458787 4.58106652 51.83208331 4.57292951 58.38977623 C4.5666311 63.7190557 4.56776506 69.04828455 4.57420158 74.37756348 C4.57510324 75.13589139 4.57600489 75.89421931 4.57693387 76.67552686 C4.57878506 78.21602855 4.58064762 79.75653022 4.58252143 81.29703188 C4.59910213 95.74423664 4.59037821 110.19134376 4.57353585 124.63854265 C4.55883653 137.85897905 4.57347 151.07918822 4.60230602 164.29959536 C4.63169035 177.87238156 4.64267526 191.44506286 4.63312382 205.01787949 C4.63210125 206.55273181 4.63110665 208.08758416 4.6301403 209.62243652 C4.62966391 210.37762424 4.62918752 211.13281195 4.6286967 211.91088414 C4.6265314 217.23412755 4.63634268 222.55727176 4.65091133 227.88049316 C4.66841675 234.36728983 4.66834327 240.85379671 4.64555968 247.34058189 C4.63440107 250.65072864 4.63398529 253.96025792 4.64986038 257.270401 C4.66570605 260.85751744 4.65091779 264.44322454 4.62818909 268.03027344 C4.64002482 269.07841846 4.65186054 270.12656349 4.66405493 271.20647049 C4.60237692 275.97963589 4.56458926 278.25020331 1.62480068 282.15435791 C-1 284 -1 284 -3.625 284.5 C-6.47827186 283.89931119 -6.99879145 283.05825012 -9 281 C-11.35521543 279.17358941 -13.74284781 277.39645258 -16.13671875 275.62109375 C-16.75160156 275.08613281 -17.36648438 274.55117188 -18 274 C-18 273.34 -18 272.68 -18 272 C-18.57621094 271.74347656 -19.15242187 271.48695313 -19.74609375 271.22265625 C-22.21951403 269.8809222 -23.99825899 268.34740523 -26.0625 266.4375 C-32.79994029 260.3296238 -39.89664115 254.67368123 -47 249 C-55.42452452 242.27097727 -63.7158145 235.41124985 -71.88012695 228.36987305 C-75.18163166 225.53103986 -78.51575829 222.7566953 -81.9375 220.0625 C-86.92357973 216.12785059 -91.68710796 211.95596497 -96.47021484 207.77978516 C-100.69899948 204.098167 -105.00842855 200.55482536 -109.4140625 197.0859375 C-113.27053636 193.97512626 -117.00674294 190.72812427 -120.75805664 187.49194336 C-124.2987072 184.44290313 -127.87136413 181.44459259 -131.5 178.5 C-136.34596789 174.5662143 -141.08098528 170.51552241 -145.80859375 166.44140625 C-149.33317903 163.41041716 -152.89048832 160.43007419 -156.5 157.5 C-161.34596789 153.5662143 -166.08098528 149.51552241 -170.80859375 145.44140625 C-175.19049048 141.67316683 -179.64526871 138.00524928 -184.1328125 134.36328125 C-188.18716634 131.02147733 -192.16716972 127.59526053 -196.14257812 124.16015625 C-199.37644905 121.37014996 -202.64500561 118.64504239 -206 116 C-205.94140625 113.28515625 -205.94140625 113.28515625 -205 110 C-202.62678511 108.15070115 -200.5628734 106.83015412 -197.9375 105.4375 C-197.18799072 105.01823242 -196.43848145 104.59896484 -195.66625977 104.16699219 C-193.12332402 102.75382187 -190.56388178 101.37477431 -188 100 C-186.1248071 98.98603374 -184.24981288 97.97169999 -182.375 96.95703125 C-179.37385373 95.33470902 -176.37160503 93.71464096 -173.36547852 92.1015625 C-166.11123353 88.19468627 -158.97347816 84.1199556 -151.875 79.9375 C-143.40579555 74.94838613 -134.8626152 70.14058103 -126.21606445 65.46630859 C-115.72802957 59.79034242 -105.36789022 53.89169013 -95 48 C-79.39463618 39.13350271 -63.71835903 30.40530229 -47.9947052 21.75106812 C-36.6123272 15.48515547 -25.25974995 9.1666777 -13.94604492 2.77758789 C-8.50872858 -0.29028483 -6.29117155 -1.51855865 0 0 Z M-65.6875 62.4375 C-68.97969243 64.42984404 -72.31218921 66.21315519 -75.7746582 67.8894043 C-84.05259279 72.02065218 -92.07406966 76.69685989 -100.125 81.25 C-101.12345947 81.81428711 -102.12191895 82.37857422 -103.15063477 82.95996094 C-109.80557201 86.73110981 -116.41518661 90.57136187 -122.99633789 94.46948242 C-129.60898927 98.37909408 -136.30027897 102.14202074 -143.00732422 105.88671875 C-147.70557455 108.51156824 -152.39583366 111.15057899 -157.08203125 113.796875 C-159.71592466 115.28316691 -162.35982466 116.7492158 -165.01171875 118.203125 C-166.27869237 118.90616614 -167.54562138 119.60928768 -168.8125 120.3125 C-170.49279297 121.23482422 -170.49279297 121.23482422 -172.20703125 122.17578125 C-174.86901576 123.91444806 -176.32318376 125.33474471 -178 128 C-172.61478412 132.9893973 -167.21583096 137.88939465 -161.5 142.5 C-156.68377455 146.388707 -152.10172758 150.48214082 -147.54296875 154.66796875 C-141.57233841 160.14333943 -135.39429204 165.37040081 -129.20629883 170.59692383 C-112.20299726 184.96182409 -112.20299726 184.96182409 -104.75 191.75 C-100.8557194 195.28334727 -96.8281875 198.58202492 -92.69921875 201.8359375 C-89.58294851 204.33436545 -86.5397657 206.90953708 -83.5 209.5 C-78.87922575 213.43320305 -74.20223295 217.27745436 -69.44921875 221.05078125 C-63.27997879 225.96059105 -57.19386553 230.96655582 -51.20581055 236.09545898 C-46.34379425 240.25103464 -41.43627549 244.33841372 -36.375 248.25 C-34.93253906 249.37148438 -34.93253906 249.37148438 -33.4609375 250.515625 C-32.24277344 251.25039063 -32.24277344 251.25039063 -31 252 C-30.01 251.67 -29.02 251.34 -28 251 C-27.08087179 221.39941281 -26.93317548 191.82563955 -27.12109375 162.21484375 C-27.12663537 161.34163624 -27.13217698 160.46842874 -27.13788652 159.5687604 C-27.20744798 148.78228972 -27.2883561 137.99591594 -27.37335551 127.20955718 C-27.44651256 117.89071712 -27.51170207 108.57182563 -27.57643402 99.25292385 C-27.70916768 80.1685495 -27.85124132 61.08425586 -28 42 C-38.92648804 42 -56.44553821 56.81506814 -65.6875 62.4375 Z " fill="#53D5D1" transform="translate(761,425)"/>
<path d="M0 0 C4.97399934 1.04771271 9.05267573 3.72025964 13.34619141 6.34619141 C15.39366076 7.55182121 17.44185054 8.75622829 19.49072266 9.95947266 C20.50859863 10.56484863 21.52647461 11.17022461 22.57519531 11.79394531 C26.84310327 14.30369215 31.18251796 16.67230351 35.53369141 19.03369141 C43.60202185 23.44658731 51.61530002 27.9521639 59.61572266 32.48681641 C66.74238727 36.52525969 73.88402529 40.53612389 81.03369141 44.53369141 C94.76097972 52.21172018 108.45277203 59.95193018 122.13525391 67.70947266 C132.40934032 73.53062358 142.70633666 79.30750997 153.03369141 85.03369141 C161.73682563 89.8603313 170.42899981 94.70525652 179.09619141 99.59619141 C180.00498047 100.10794922 180.91376953 100.61970703 181.85009766 101.14697266 C187.80362638 104.5135514 193.68520625 107.98789532 199.53369141 111.53369141 C198.77587584 116.38250333 197.39765173 118.042553 193.65869141 121.28369141 C192.9188501 121.93156616 192.9188501 121.93156616 192.1640625 122.5925293 C187.98951006 126.22121955 183.70567282 129.72044047 179.40478516 133.19775391 C171.05946952 139.98754813 162.92958774 147.04290809 154.76708984 154.05029297 C149.2514472 158.78279389 143.70462308 163.47776339 138.15136719 168.16601562 C136.50460162 169.55828558 134.86059073 170.95374613 133.21728516 172.35009766 C128.08724993 176.70640038 122.94155041 181.03539925 117.72119141 185.28369141 C114.60935318 187.8162697 111.53909105 190.37577205 108.53369141 193.03369141 C104.61947281 196.49535328 100.5754641 199.78395096 96.52197266 203.08056641 C92.76760457 206.16258361 89.06700742 209.30497084 85.36645508 212.45117188 C81.99594567 215.31145057 78.5938333 218.12592068 75.15869141 220.90869141 C70.7055288 224.53094321 66.3601963 228.26236709 62.03369141 232.03369141 C56.85020987 236.55202443 51.60564804 240.97164681 46.26416016 245.30322266 C39.14012497 251.12271349 32.16654233 257.1256015 25.19311523 263.12402344 C19.47946913 268.03796233 13.73541797 272.89670367 7.86181641 277.61962891 C6.46185383 278.77060485 5.0869684 279.95471796 3.76806641 281.19775391 C1.06587886 283.74349901 -0.41895978 284.52646871 -4.15380859 285.09619141 C-7.46630859 284.53369141 -7.46630859 284.53369141 -9.14957005 282.79684776 C-10.66098848 280.19908357 -10.84292911 278.74586438 -10.84662533 275.76068974 C-10.85506527 274.79787525 -10.86350521 273.83506077 -10.87220091 272.84307009 C-10.86619086 271.78812127 -10.86018082 270.73317246 -10.85398865 269.64625549 C-10.85937419 268.52338872 -10.86475972 267.40052195 -10.87030846 266.24362892 C-10.88465797 262.46724063 -10.8774669 258.69119941 -10.87036133 254.91479492 C-10.87441644 252.21298306 -10.88292295 249.51118912 -10.89115906 246.80938721 C-10.90836885 240.2241992 -10.90918257 233.63910652 -10.90394615 227.05390186 C-10.89990725 221.70219911 -10.90134468 216.35052457 -10.90669441 210.99882317 C-10.90744283 210.2375844 -10.90819126 209.47634563 -10.90896236 208.69203902 C-10.91049381 207.14565881 -10.91203216 205.5992786 -10.91357733 204.0528984 C-10.92731026 189.54610256 -10.92185912 175.03936062 -10.91039211 160.532566 C-10.90045896 147.25713243 -10.91340037 133.98183822 -10.9373263 120.70642615 C-10.96170109 107.07944131 -10.97132917 93.45252142 -10.96467358 79.82551521 C-10.96117773 72.17328873 -10.96343744 64.52116945 -10.98092461 56.86895943 C-10.99562637 50.35472848 -10.99630874 43.84068021 -10.9788537 37.32645292 C-10.9703242 34.00215352 -10.97039733 30.67844965 -10.98350525 27.35412407 C-10.99662747 23.75180832 -10.98524434 20.15038752 -10.96751404 16.54811096 C-10.97711904 15.49539287 -10.98672405 14.44267477 -10.99662012 13.35805613 C-10.95113973 8.88419429 -10.91639995 6.27576058 -8.55868626 2.38857937 C-5.56141987 -0.26849035 -3.87263953 -0.23003431 0 0 Z M23.53369141 42.53369141 C22.11863136 45.3638115 22.37085417 47.76817468 22.33078003 50.93438721 C22.32105293 51.5994049 22.31132584 52.2644226 22.30130398 52.94959235 C22.26976531 55.19015413 22.24525134 57.43073822 22.22070312 59.67138672 C22.19962759 61.27503479 22.17814348 62.87867753 22.15628052 64.48231506 C22.09798933 68.85852545 22.04601068 73.23478997 21.99550772 77.61109638 C21.95255615 81.28841043 21.90668673 84.96568583 21.86086667 88.64296508 C21.75232189 97.36251217 21.64900406 106.08211087 21.54882812 114.80175781 C21.44650749 123.7000164 21.33545314 132.59813384 21.21981227 141.49622846 C21.1201826 149.18845788 21.02643481 156.88074521 20.93699849 164.57309985 C20.88381994 169.14177128 20.82868649 173.7103932 20.76778793 178.27896881 C20.51835283 197.17840858 20.47156757 216.05025998 20.95214844 234.94677734 C20.98235317 236.19560723 20.98235317 236.19560723 21.0131681 237.469666 C21.07155625 239.79784773 21.13734717 242.12567023 21.20657349 244.45355225 C21.22426198 245.1453626 21.24195048 245.83717296 21.26017499 246.54994726 C21.34812626 250.16441346 21.34812626 250.16441346 22.53369141 253.53369141 C25.96042837 252.00630057 28.59210422 249.99037969 31.47119141 247.59619141 C32.9271875 246.38962891 32.9271875 246.38962891 34.41259766 245.15869141 C36.51286437 243.39841738 38.60221467 241.62589369 40.68603516 239.84619141 C41.76008142 238.92932265 42.83430223 238.01265832 43.90869141 237.09619141 C44.45267578 236.63212891 44.99666016 236.16806641 45.55712891 235.68994141 C49.27684275 232.53912497 53.0835972 229.53636887 56.97119141 226.59619141 C63.48289174 221.66374065 69.64787665 216.37171832 75.81494141 211.01855469 C78.53574621 208.66799576 81.28448646 206.35090233 84.03369141 204.03369141 C87.99434863 200.69207561 91.93789783 197.33181442 95.86572266 193.95166016 C101.41146725 189.17917842 107.00894024 184.48907765 112.68994141 179.87744141 C116.01056058 177.14066736 119.27403625 174.34252446 122.53369141 171.53369141 C130.13071757 164.99192226 137.87159653 158.64535583 145.72119141 152.40869141 C149.37069866 149.4994144 152.89993294 146.49144332 156.38916016 143.39306641 C159.85713486 140.38622495 163.44171028 137.5233848 167.01806641 134.64697266 C169.34215188 132.69459651 171.53853944 130.82252229 173.53369141 128.53369141 C173.53369141 127.54369141 173.53369141 126.55369141 173.53369141 125.53369141 C172.86128418 125.17243164 172.18887695 124.81117188 171.49609375 124.43896484 C157.04508505 116.67255956 142.61398385 108.8717841 128.21923828 101.00146484 C124.57844465 99.01160563 120.93589921 97.02496601 117.29321289 95.03857422 C115.45403369 94.03559266 113.61500362 93.03233757 111.77612305 92.02880859 C107.23280999 89.54953946 102.68784392 87.07340721 98.13916016 84.60400391 C78.49067006 73.92906351 58.98331731 63.01741977 39.65869141 51.76660156 C34.30134685 48.65830767 28.91620215 45.59812248 23.53369141 42.53369141 Z " fill="#A5F3EC" transform="translate(269.46630859375,424.46630859375)"/>
<path d="M0 0 C6.87617116 2.23693163 12.80837975 6.45701848 18.77490234 10.45605469 C20.9538548 11.91544182 23.14885302 13.34460728 25.35546875 14.76171875 C28.16659621 16.56713262 30.97080889 18.38244628 33.76953125 20.20703125 C38.18267548 23.07622709 42.63087616 25.88787902 47.0859375 28.69140625 C54.54467337 33.38767596 61.9771783 38.12364109 69.3984375 42.87890625 C77.34964265 47.97350686 85.30533547 53.06076702 93.2734375 58.12890625 C94.16764404 58.69778564 95.06185059 59.26666504 95.9831543 59.8527832 C100.53537822 62.74808157 105.08921438 65.64082051 109.64453125 68.53125 C119.38353625 74.71452858 129.09016638 80.94219513 138.75170898 87.24584961 C145.18093467 91.43349477 151.6581245 95.54073874 158.15307617 99.62548828 C164.02343258 103.3212096 169.85251168 107.07667607 175.66821289 110.85766602 C180.98604521 114.30859317 186.34299415 117.69408491 191.7109375 121.06640625 C198.8240359 125.53968107 205.85719049 130.11517259 212.82421875 134.8125 C214.85242059 136.17516016 216.88995898 137.52415544 218.94140625 138.8515625 C219.75222656 139.37621094 220.56304688 139.90085937 221.3984375 140.44140625 C222.07519531 140.87324219 222.75195312 141.30507813 223.44921875 141.75 C226.28021006 143.91885014 227.05161179 145.78078916 227.5859375 149.25390625 C226.90676857 154.34767324 224.93663939 156.83351704 221.0859375 160.00390625 C217.5000269 162.35136156 213.8484969 164.52211244 210.12890625 166.6484375 C205.49531241 169.30371839 201.05899091 172.24379309 196.65429688 175.26123047 C193.3955821 177.42434286 192.14310685 178.00390625 188.0859375 178.00390625 C188.52950025 174.45540425 189.22339512 171.68500456 190.6484375 168.37890625 C192.66156293 163.1808361 193.23067672 157.46401109 192.0859375 152.00390625 C188.02422739 146.67931149 181.9830141 143.62462612 176.3359375 140.19140625 C174.17240872 138.85801676 172.00967351 137.52333895 169.84765625 136.1875 C168.17582275 135.15665283 168.17582275 135.15665283 166.47021484 134.10498047 C160.99631261 130.70659621 155.5709822 127.23346266 150.1484375 123.75390625 C149.10445801 123.08456055 148.06047852 122.41521484 146.98486328 121.72558594 C140.1896574 117.36437148 133.4058278 112.98572765 126.63110352 108.59277344 C122.11121188 105.66258284 117.57248349 102.76366712 113.0234375 99.87890625 C108.51323195 97.00005164 104.02499964 94.08732028 99.53710938 91.17382812 C93.74211511 87.41566088 87.91677956 83.70615678 82.0859375 80.00390625 C71.22196382 73.1038687 60.36114003 66.20126299 49.56665039 59.19287109 C42.75930786 54.77925737 35.91452201 50.42491575 29.0625 46.08105469 C24.95277213 43.47407287 20.84946933 40.86096361 16.78515625 38.18359375 C16.15053467 37.7673877 15.51591309 37.35118164 14.86206055 36.92236328 C13.22493422 35.84534794 11.59270126 34.76090415 9.9609375 33.67578125 C4.58889676 30.55182278 -0.68055785 29.02218149 -6.9140625 30.00390625 C-9.67184651 31.06194207 -12.05873361 32.53657389 -14.5390625 34.12890625 C-15.62477539 34.79672119 -15.62477539 34.79672119 -16.73242188 35.47802734 C-19.13906959 36.96720408 -21.5269906 38.48357441 -23.9140625 40.00390625 C-25.61956663 41.07718059 -27.32530141 42.1500885 -29.03125 43.22265625 C-33.68619756 46.16154335 -38.32278478 49.12831883 -42.95458984 52.10351562 C-45.96618425 54.03737562 -48.98070003 55.96660143 -51.99609375 57.89453125 C-56.18613857 60.57358551 -60.37486954 63.25467347 -64.5625 65.9375 C-68.75255211 68.62137045 -72.94533211 71.30089206 -77.140625 73.9765625 C-87.83428073 80.80072588 -98.49333006 87.67257253 -109.1015625 94.62890625 C-123.56791293 104.11167468 -138.13896382 113.41698897 -152.82446289 122.55664062 C-162.1260966 128.34812479 -171.39690374 134.18424607 -180.6015625 140.12890625 C-182.04486938 141.05207642 -182.04486938 141.05207642 -183.51733398 141.99389648 C-191.35011915 146.85793314 -191.35011915 146.85793314 -196.9140625 154.00390625 C-197.7623437 160.36601523 -195.4703595 165.1944375 -193.0078125 171.015625 C-191.9140625 174.00390625 -191.9140625 174.00390625 -191.9140625 178.00390625 C-198.28725732 177.70141419 -202.61753613 174.27711344 -207.7265625 170.81640625 C-209.00370117 169.96852539 -209.00370117 169.96852539 -210.30664062 169.10351562 C-212.01030328 167.9707681 -213.70973924 166.83163663 -215.40478516 165.68603516 C-217.07498549 164.56639317 -218.75710514 163.46432651 -220.45068359 162.38037109 C-221.64491943 161.61200928 -221.64491943 161.61200928 -222.86328125 160.828125 C-223.57186279 160.37912842 -224.28044434 159.93013184 -225.01049805 159.4675293 C-227.76895243 157.34659381 -229.64496721 155.25744183 -230.3828125 151.8203125 C-230.393125 151.07652344 -230.4034375 150.33273437 -230.4140625 149.56640625 C-230.445 148.82519531 -230.4759375 148.08398438 -230.5078125 147.3203125 C-229.08224348 141.75871757 -223.24260738 138.65301666 -218.6640625 135.69140625 C-218.03274414 135.27681152 -217.40142578 134.8622168 -216.75097656 134.43505859 C-214.47796792 132.94861518 -212.19701485 131.47503287 -209.9140625 130.00390625 C-208.97820312 129.40046387 -208.04234375 128.79702148 -207.078125 128.17529297 C-195.76255451 120.89034905 -184.40549477 113.67265677 -173.01220703 106.51000977 C-166.80896452 102.59761037 -160.67186515 98.58807517 -154.5390625 94.56640625 C-146.30857033 89.17103656 -138.00132928 83.92529879 -129.61547852 78.77539062 C-122.84314552 74.60623093 -116.16525961 70.30580753 -109.50976562 65.953125 C-103.27859328 61.8805913 -97.01187525 57.86732771 -90.7265625 53.87890625 C-84.20713527 49.74157743 -77.70159647 45.58538763 -71.2265625 41.37890625 C-64.6374727 37.10083362 -58.00848485 32.88937983 -51.36181641 28.70141602 C-46.05238969 25.35571301 -40.74939994 22.00018147 -35.45507812 18.63061523 C-33.56516093 17.42904314 -31.67325503 16.23059284 -29.77929688 15.03540039 C-25.72672861 12.47158211 -21.70742928 9.89389516 -17.796875 7.1171875 C-6.81686962 -0.62971083 -6.81686962 -0.62971083 0 0 Z " fill="#BBF6F1" transform="translate(513.9140625,245.99609375)"/>
<path d="M0 0 C1.09634766 0.00447144 1.09634766 0.00447144 2.21484375 0.0090332 C3.01148438 0.00967773 3.808125 0.01032227 4.62890625 0.01098633 C5.87800781 0.03515625 5.87800781 0.03515625 7.15234375 0.05981445 C7.98507812 0.0565918 8.8178125 0.05336914 9.67578125 0.05004883 C15.8853412 0.1053119 15.8853412 0.1053119 18.15234375 2.37231445 C18.05895615 11.08537743 14.72489959 18.98023801 11.77734375 27.05981445 C11.23239911 28.57549367 10.68822172 30.09144894 10.14477539 31.60766602 C8.49448949 36.20096027 6.82480522 40.78705778 5.15234375 45.37231445 C4.66345711 46.71618462 4.17468263 48.06009559 3.68603516 49.40405273 C0.99089346 56.81101385 -1.72880294 64.20880124 -4.45800781 71.60327148 C-6.67035607 77.59981685 -8.86841992 83.60160932 -11.06784058 89.60290527 C-11.75981582 91.49068322 -12.45228621 93.37827966 -13.14477539 95.26586914 C-13.57137451 96.42892578 -13.99797363 97.59198242 -14.4375 98.7902832 C-14.84468262 99.89678223 -15.25186523 101.00328125 -15.67138672 102.14331055 C-16.45432162 104.29256274 -17.22424814 106.44659919 -17.98095703 108.60522461 C-18.50471924 110.0928833 -18.50471924 110.0928833 -19.0390625 111.6105957 C-19.34142822 112.48369385 -19.64379395 113.35679199 -19.95532227 114.25634766 C-20.84765625 116.37231445 -20.84765625 116.37231445 -22.84765625 118.37231445 C-24.6953125 118.63110352 -24.6953125 118.63110352 -26.91015625 118.63793945 C-28.10511719 118.64180664 -28.10511719 118.64180664 -29.32421875 118.64575195 C-30.15695312 118.63801758 -30.9896875 118.6302832 -31.84765625 118.62231445 C-33.09675781 118.63391602 -33.09675781 118.63391602 -34.37109375 118.64575195 C-35.16773438 118.64317383 -35.964375 118.6405957 -36.78515625 118.63793945 C-37.51605469 118.63568359 -38.24695313 118.63342773 -39 118.63110352 C-40.84765625 118.37231445 -40.84765625 118.37231445 -42.84765625 116.37231445 C-42.67959818 108.60429711 -39.63563887 101.58424472 -36.97265625 94.37231445 C-36.52535156 93.1399707 -36.07804687 91.90762695 -35.6171875 90.63793945 C-33.88100549 85.86471929 -32.12763965 81.09859067 -30.328125 76.34887695 C-28.37277494 71.15925738 -26.5603271 65.918222 -24.71896362 60.68737793 C-20.30213526 48.15617729 -15.79938888 35.65677295 -11.2237854 23.18267822 C-10.59934998 21.47936245 -9.97627657 19.77554673 -9.35458374 18.07122803 C-8.48000697 15.67529513 -7.60016673 13.28136314 -6.71875 10.88793945 C-6.45773499 10.1705661 -6.19671997 9.45319275 -5.92779541 8.71408081 C-2.91834304 0.58806463 -2.91834304 0.58806463 0 0 Z " fill="#B8F4F0" transform="translate(522.84765625,345.627685546875)"/>
<path d="M0 0 C2.8359375 1.5625 2.8359375 1.5625 5 4 C5.6640625 7.3125 5.6640625 7.3125 5.625 11 C5.63789063 12.216875 5.65078125 13.43375 5.6640625 14.6875 C4.80859346 18.95478087 3.49202876 19.50751734 0 22 C-2.19040583 23.40630428 -4.38146751 24.77327893 -6.61328125 26.109375 C-7.53490303 26.66688446 -7.53490303 26.66688446 -8.47514343 27.23565674 C-10.41892853 28.41045712 -12.36564457 29.58029629 -14.3125 30.75 C-15.63886943 31.55045399 -16.96504332 32.35123208 -18.29101562 33.15234375 C-21.52509514 35.10531687 -24.76181084 37.05384927 -28 39 C-22.78483747 42.15094636 -17.55368643 45.26990999 -12.28125 48.32421875 C-10.85425781 49.15469727 -10.85425781 49.15469727 -9.3984375 50.00195312 C-7.43769474 51.14219639 -5.47406161 52.27748154 -3.5078125 53.40820312 C-2.56679688 53.95798828 -1.62578125 54.50777344 -0.65625 55.07421875 C0.19130859 55.56494873 1.03886719 56.05567871 1.91210938 56.5612793 C4 58 4 58 6 61 C6.80447419 65.99620813 6.79716775 69.81632667 3.9375 74.0625 C0.41597156 76.38521024 -1.80062192 76.77581517 -6 77 C-9.06689453 75.86352539 -9.06689453 75.86352539 -12.1328125 74.09765625 C-13.83824219 73.13182617 -13.83824219 73.13182617 -15.578125 72.14648438 C-16.76058031 71.45210151 -17.94287164 70.75743932 -19.125 70.0625 C-20.28290361 69.40132731 -21.44175328 68.74180856 -22.6015625 68.08398438 C-29.51436415 64.12547127 -36.31707917 60.0007719 -43.08251953 55.79614258 C-46.74287954 53.5426473 -50.44965095 51.37584671 -54.171875 49.2265625 C-56.73698418 47.50552771 -56.96079825 46.14520649 -57.765625 43.1640625 C-58.35184742 38.88085675 -58.32665051 36.14205031 -57 32 C-52.58956838 27.32508317 -46.41568417 24.52757232 -40.81103516 21.53710938 C-36.08479707 18.95274295 -31.55901158 16.05311745 -27 13.1875 C-25.23888046 12.10319284 -23.47718275 11.01982403 -21.71484375 9.9375 C-18.92327304 8.21246522 -16.16022029 6.46253228 -13.44140625 4.625 C-12.49136719 3.985625 -11.54132813 3.34625 -10.5625 2.6875 C-9.80066406 2.15511719 -9.03882813 1.62273437 -8.25390625 1.07421875 C-5.23900218 -0.36269393 -3.30563565 -0.45639099 0 0 Z " fill="#BDF5F1" transform="translate(461,367)"/>
<path d="M0 0 C3.52302054 1.57681119 6.73463863 3.57527509 10 5.625 C10.9475415 6.20314453 11.89508301 6.78128906 12.87133789 7.37695312 C14.88308717 8.60601625 16.89089576 9.84154931 18.89501953 11.08300781 C22.01999765 13.0123464 25.16107646 14.91237495 28.30859375 16.8046875 C39.48583061 23.54018457 39.48583061 23.54018457 45 27 C45.71816895 27.42547119 46.43633789 27.85094238 47.17626953 28.28930664 C50.34528048 30.29258866 51.83981905 31.50006024 53 35.12109375 C53 36.21550781 53 37.30992187 53 38.4375 C53.04125 39.52933594 53.0825 40.62117188 53.125 41.74609375 C51.34460197 46.89564778 47.58963087 48.36952387 43 51 C41.80583529 51.7153215 40.61339599 52.43352843 39.42236328 53.15405273 C35.31823577 55.62971252 31.19132919 58.06583598 27.0625 60.5 C24.94849288 61.7494613 22.8349004 62.99962063 20.72148132 64.25007629 C19.35900718 65.05558312 17.99590902 65.86003548 16.63215637 66.66337585 C12.04806295 69.3660496 7.50431552 72.12798491 2.99511719 74.9543457 C-0.2206964 76.63977517 -2.48796421 76.75749791 -6 76 C-8.9375 74.25 -8.9375 74.25 -11 71 C-11.82257438 66.82878951 -12.16289638 63.10713857 -11 59 C-6.25353548 53.16465771 1.23643056 49.76146582 7.6875 46.1875 C8.71939453 45.60291016 9.75128906 45.01832031 10.81445312 44.41601562 C19.1268219 39.76087334 19.1268219 39.76087334 23 39 C23 38.34 23 37.68 23 37 C22.4212915 36.87705566 21.84258301 36.75411133 21.24633789 36.62744141 C18.94308754 35.98410336 17.14458217 35.12215715 15.05859375 33.9609375 C14.31472412 33.54835693 13.57085449 33.13577637 12.80444336 32.71069336 C12.02335205 32.26991455 11.24226074 31.82913574 10.4375 31.375 C9.63771729 30.92713135 8.83793457 30.4792627 8.01391602 30.01782227 C-8.03985189 20.96014811 -8.03985189 20.96014811 -11 18 C-11.17883149 15.73382392 -11.26802736 13.46028615 -11.3125 11.1875 C-11.34988281 9.94355469 -11.38726563 8.69960938 -11.42578125 7.41796875 C-11 4 -11 4 -9.41796875 1.55078125 C-5.90547229 -0.70198304 -4.14062632 -0.64279884 0 0 Z " fill="#A8F5F0" transform="translate(566,367)"/>
<path d="M0 0 C0.66 0 1.32 0 2 0 C3.5859375 1.609375 3.5859375 1.609375 5.375 3.75 C7.81617866 6.6243732 10.27649992 9.38543992 13 12 C12.113125 12.53625 11.22625 13.0725 10.3125 13.625 C6.81711784 15.93311458 4.55125342 18.69837793 2 22 C1.56429687 21.61328125 1.12859375 21.2265625 0.6796875 20.828125 C-3.05744652 17.56015499 -6.8076016 14.65859411 -11 12 C-8.42667974 9.42667974 -5.85276855 6.85611472 -3.25 4.3125 C-0.98059858 2.21386687 -0.98059858 2.21386687 0 0 Z " fill="#B2F3F2" transform="translate(669,291)"/>
<path d="M0 0 C0.66 0 1.32 0 2 0 C3.62109375 1.6796875 3.62109375 1.6796875 5.4375 3.875 C7.58400884 6.46193722 9.16776562 8.11184374 12 10 C12 10.66 12 11.32 12 12 C10.390625 13.3671875 10.390625 13.3671875 8.25 14.875 C5.23327463 17.05731197 2.53516854 19.25356742 0 22 C-0.37511719 21.52949219 -0.75023437 21.05898438 -1.13671875 20.57421875 C-4.17143243 16.88211118 -6.78403538 14.35598023 -11 12 C-11 11.34 -11 10.68 -11 10 C-9.56015998 9.06242975 -8.11775902 8.12845953 -6.66015625 7.21875 C-4.85888584 5.89640561 -3.63240606 4.49967215 -2.25 2.75 C-1.5075 1.8425 -0.765 0.935 0 0 Z " fill="#DBF6F6" transform="translate(622,250)"/>
<path d="M0 0 C3.9405216 1.9702608 5.96928147 3.89157074 9 7 C9.99 7.66 10.98 8.32 12 9 C10.8876629 12.33701129 10.37586492 12.67511464 7.5625 14.5 C4.86079158 16.25977667 3.8672858 17.1990713 2 20 C-0.93050271 18.65739083 -3.20913591 17.12851462 -5.625 15 C-6.21539062 14.484375 -6.80578125 13.96875 -7.4140625 13.4375 C-8.64090196 12.32548788 -9.82916568 11.17083432 -11 10 C-5.555 5.05 -5.555 5.05 0 0 Z " fill="#9DF3F2" transform="translate(337,292)"/>
<path d="M0 0 C0.515625 0.70125 1.03125 1.4025 1.5625 2.125 C4.0344626 5.0406482 6.63130997 7.29677831 9.609375 9.66796875 C10.06828125 10.10753906 10.5271875 10.54710937 11 11 C11 13 11 13 9.35546875 14.65625 C8.64003906 15.2646875 7.92460937 15.873125 7.1875 16.5 C6.47980469 17.1084375 5.77210938 17.716875 5.04296875 18.34375 C3 20 3 20 0 22 C-3.66666667 18.33333333 -7.33333333 14.66666667 -11 11 C-10.45730469 10.54109375 -9.91460937 10.0821875 -9.35546875 9.609375 C-8.64003906 8.99578125 -7.92460937 8.3821875 -7.1875 7.75 C-6.47980469 7.14671875 -5.77210938 6.5434375 -5.04296875 5.921875 C-3.08110329 4.07629602 -1.54330375 2.20054668 0 0 Z " fill="#CBF3F3" transform="translate(404,250)"/>
<path d="M0 0 C0 0.33 0 0.66 0 1 C-0.94875 1.28875 -1.8975 1.5775 -2.875 1.875 C-6.05211578 2.76825109 -6.05211578 2.76825109 -8 5 C-8.2950408 7.0743388 -8.2950408 7.0743388 -8.23377991 9.49717712 C-8.23508156 10.44632618 -8.23638321 11.39547523 -8.2377243 12.37338638 C-8.22896523 13.42055706 -8.22020615 14.46772774 -8.21118164 15.54663086 C-8.20989006 16.649911 -8.20859848 17.75319115 -8.20726776 18.88990402 C-8.20078122 22.58163589 -8.18027883 26.27316304 -8.16015625 29.96484375 C-8.15353224 32.56272652 -8.14793037 35.16061207 -8.14329529 37.75849915 C-8.13242153 43.28429911 -8.11526715 48.81004706 -8.09375 54.33581543 C-8.04167598 67.85668188 -8.02327049 81.37761898 -8.00660849 94.89856863 C-8.00390232 97.01478843 -8.0008373 99.13100749 -7.997715 101.24722672 C-7.96514782 124.25156029 -8.09421016 147.24898902 -8.5 170.25 C-8.51209126 170.94516094 -8.52418251 171.64032188 -8.53664017 172.35654831 C-8.67425164 180.23805474 -8.82495306 188.11922924 -9 196 C-9.33 196 -9.66 196 -10 196 C-10.07001161 170.88775805 -10.12294964 145.77553068 -10.15543652 120.66321087 C-10.17092016 109.00371226 -10.19203824 97.3442742 -10.22631836 85.68481445 C-10.25617492 75.52508451 -10.2755641 65.36539842 -10.28226548 55.20562583 C-10.28618409 49.82369645 -10.29542438 44.44189254 -10.31719017 39.06000328 C-10.33749622 33.99822249 -10.34384575 28.93661929 -10.33932304 23.87480164 C-10.34015089 22.01354827 -10.34615143 20.15228918 -10.35761642 18.29107094 C-10.37246867 15.75642314 -10.36898048 13.22245228 -10.36076355 10.68778992 C-10.36950207 9.94557542 -10.3782406 9.20336092 -10.38724393 8.43865508 C-10.36173049 5.54152862 -10.32246977 3.49135402 -8.70792103 1.03123188 C-5.91928243 -0.65253041 -3.16407557 -0.17909862 0 0 Z " fill="#D7FCFB" transform="translate(270,425)"/>
<path d="M0 0 C2.67479327 0.26095544 4.60095141 0.8004757 7 2 C8.30770961 5.52075665 8.08307088 6.8085758 6.5625 10.3125 C5.7890625 11.6428125 5.7890625 11.6428125 5 13 C4.01 13 3.02 13 2 13 C2 14.65 2 16.3 2 18 C1.7525 17.38125 1.505 16.7625 1.25 16.125 C-0.22770762 13.61289704 -1.43955177 13.23892656 -4 12 C-4.33 11.01 -4.66 10.02 -5 9 C-5.99 8.67 -6.98 8.34 -8 8 C-8 7.34 -8 6.68 -8 6 C-6.34928604 4.97388051 -4.68029994 3.97691857 -3 3 C-2.505 2.4225 -2.01 1.845 -1.5 1.25 C-1.005 0.8375 -0.51 0.425 0 0 Z " fill="#2B5F60" transform="translate(706,256)"/>
<path d="M0 0 C0.33 0.66 0.66 1.32 1 2 C1.7425 2.28875 2.485 2.5775 3.25 2.875 C6.36618195 4.14980171 8.43789841 5.83206789 11 8 C12.32901064 9.00573778 13.66073801 10.00795408 15 11 C14.154375 11.495 13.30875 11.99 12.4375 12.5 C8.81428229 14.88392234 6.25651397 17.96562831 3.515625 21.29296875 C2 23 2 23 0 24 C0.33 21.69 0.66 19.38 1 17 C1.99 17 2.98 17 4 17 C5.19287411 13.12315913 6 10.08378077 6 6 C1.10104783 4.81503452 1.10104783 4.81503452 -3.4375 6.4375 C-3.953125 6.953125 -4.46875 7.46875 -5 8 C-5 6.35 -5 4.7 -5 3 C-3.35 2.67 -1.7 2.34 0 2 C0 1.34 0 0.68 0 0 Z " fill="#1D363B" transform="translate(707,252)"/>
<path d="M0 0 C-3.93548785 2.41954092 -7.97483353 4.60255505 -12.0625 6.75 C-26.47493898 13.02125893 -26.47493898 13.02125893 -36 24 C-35.44570313 24.23589844 -34.89140625 24.47179687 -34.3203125 24.71484375 C-31.43552758 26.3126455 -29.28827968 28.31851009 -26.875 30.5625 C-23.68492491 33.63719186 -23.68492491 33.63719186 -20 36 C-20.33 36.66 -20.66 37.32 -21 38 C-23.72157317 35.77722049 -26.44036372 33.55173413 -29.1484375 31.3125 C-30.76668782 30.0001655 -32.40572614 28.71041108 -34.1015625 27.5 C-35.75 26.3125 -35.75 26.3125 -38 24 C-38.109375 21.15625 -38.109375 21.15625 -37 18 C-34.74442685 15.95632585 -32.17759456 14.61076029 -29.5 13.1875 C-28.7476709 12.76879639 -27.9953418 12.35009277 -27.22021484 11.91870117 C-25.6336431 11.04113176 -24.04150447 10.17356175 -22.44433594 9.31542969 C-20.01404546 8.00755863 -17.60410052 6.66729966 -15.1953125 5.3203125 C-13.67292884 4.48245732 -12.14952512 3.64645233 -10.625 2.8125 C-9.90634766 2.41377686 -9.18769531 2.01505371 -8.44726562 1.60424805 C-3.34825093 -1.11608364 -3.34825093 -1.11608364 0 0 Z " fill="#95E1DB" transform="translate(593,517)"/>
<path d="M0 0 C0.66 0.33 1.32 0.66 2 1 C1.67 1.66 1.34 2.32 1 3 C-0.01449219 2.72414063 -1.02898437 2.44828125 -2.07421875 2.1640625 C-6.73301266 1.96936664 -7.76457875 2.75442926 -11.08544922 5.72192383 C-11.65537598 6.26743896 -12.22530273 6.8129541 -12.8125 7.375 C-13.41852051 7.92502686 -14.02454102 8.47505371 -14.64892578 9.04174805 C-15.8737399 10.15631918 -17.09100413 11.27924764 -18.30029297 12.41064453 C-20.62398489 14.58347338 -23.00078653 16.69515662 -25.375 18.8125 C-26.91716032 20.20778791 -28.45885604 21.60358956 -30 23 C-38.28286853 30.4940239 -38.28286853 30.4940239 -43 33 C-41.45427224 29.18371168 -39.11228755 27.02974257 -36.0625 24.3125 C-35.33051392 23.65894531 -35.33051392 23.65894531 -34.58374023 22.9921875 C-30.43117759 19.31346085 -26.1646318 15.78124703 -21.83203125 12.31640625 C-19.7973975 10.65221616 -17.83572177 8.97299305 -15.88671875 7.21484375 C-15.36327881 6.75207031 -14.83983887 6.28929687 -14.30053711 5.8125 C-12.83127003 4.5095694 -11.37612456 3.19076497 -9.921875 1.87109375 C-6.33344951 -0.42684183 -4.18654634 -0.43568126 0 0 Z " fill="#8AE5DE" transform="translate(493,553)"/>
<path d="M0 0 C0 0.33 0 0.66 0 1 C-0.94875 1.28875 -1.8975 1.5775 -2.875 1.875 C-6.05211578 2.76825109 -6.05211578 2.76825109 -8 5 C-8.33232684 7.71034638 -8.33232684 7.71034638 -8.31884766 10.91845703 C-8.33871735 12.15959259 -8.35858704 13.40072815 -8.37905884 14.67947388 C-8.39093611 16.03891827 -8.40259892 17.39836455 -8.4140625 18.7578125 C-8.43276729 20.14502118 -8.45234019 21.5322184 -8.4727478 22.91940308 C-8.52414812 26.57225804 -8.56373125 30.22514994 -8.60089111 33.87817383 C-8.64088148 37.60507397 -8.69199639 41.33181949 -8.7421875 45.05859375 C-8.83904019 52.37228988 -8.92341475 59.6860606 -9 67 C-9.33 67 -9.66 67 -10 67 C-10.06947842 58.70728091 -10.12280001 50.41468321 -10.15543652 42.12174511 C-10.1710996 38.27108169 -10.19234923 34.42061725 -10.22631836 30.57006836 C-10.25888946 26.85478571 -10.27684817 23.13969456 -10.28463173 19.42428017 C-10.29017934 18.00606585 -10.30101244 16.58786213 -10.31719017 15.16972923 C-10.3389319 13.18511533 -10.34022513 11.20030914 -10.34057617 9.21557617 C-10.34723801 8.08528488 -10.35389984 6.95499359 -10.36076355 5.79045105 C-10 3 -10 3 -8.70918274 1.12324524 C-5.94265987 -0.69486559 -3.20638457 -0.18149347 0 0 Z " fill="#F9FDFE" transform="translate(270,425)"/>
<path d="M0 0 C3.78903708 0.25260247 5.54186593 2.27849443 8 5 C5.75 7.5625 5.75 7.5625 3 10 C0.22141617 10 -0.69326262 9.27387266 -2.75 7.4375 C-3.1625 6.963125 -3.575 6.48875 -4 6 C-2.84826645 3.53199953 -1.95216435 1.95216435 0 0 Z " fill="#A9E5E1" transform="translate(706,258)"/>
<path d="M0 0 C0.66 0.33 1.32 0.66 2 1 C-0.38473259 2.43083956 -2.76974402 3.86118111 -5.15625 5.2890625 C-6.93272066 6.35787315 -8.70442579 7.43469313 -10.46875 8.5234375 C-16.79950605 12.40821962 -23.32691484 15.74550355 -30 19 C-32.0009298 19.99813824 -34.00118413 20.99763524 -36 22 C-36 21.34 -36 20.68 -36 20 C-28.34278393 15.64982201 -20.67488469 11.31892165 -13 7 C-12.23010742 6.56478027 -11.46021484 6.12956055 -10.66699219 5.68115234 C-8.8452551 4.65394645 -7.0167669 3.63873595 -5.1875 2.625 C-3.72376953 1.80902344 -3.72376953 1.80902344 -2.23046875 0.9765625 C-1.12638672 0.49316406 -1.12638672 0.49316406 0 0 Z " fill="#93E0D9" transform="translate(702,453)"/>
<path d="M0 0 C0.66 0.33 1.32 0.66 2 1 C-7.54972664 9.98093415 -17.21896169 18.50014726 -28 26 C-26.41410449 21.61792029 -22.97351431 19.13116751 -19.5 16.25 C-18.87577148 15.7235791 -18.25154297 15.1971582 -17.60839844 14.65478516 C-13.09794071 10.8667867 -8.52430978 7.15980602 -3.890625 3.5234375 C-1.91907902 1.99036888 -1.91907902 1.99036888 0 0 Z " fill="#78DDD5" transform="translate(359,660)"/>
<path d="M0 0 C0.33 0.66 0.66 1.32 1 2 C2.175625 2.4640625 2.175625 2.4640625 3.375 2.9375 C7.56856576 4.63489566 9.1801637 6.94036518 11 11 C9.35 11.33 7.7 11.66 6 12 C6 10.02 6 8.04 6 6 C1.10104783 4.81503452 1.10104783 4.81503452 -3.4375 6.4375 C-3.953125 6.953125 -4.46875 7.46875 -5 8 C-5 6.35 -5 4.7 -5 3 C-3.35 2.67 -1.7 2.34 0 2 C0 1.34 0 0.68 0 0 Z " fill="#29585B" transform="translate(707,252)"/>
<path d="M0 0 C0.33 0 0.66 0 1 0 C1.01981934 0.95890137 1.03963867 1.91780273 1.06005859 2.90576172 C1.13604145 6.45811553 1.2247693 10.01005576 1.31738281 13.56201172 C1.35570301 15.10034021 1.39055056 16.63875925 1.421875 18.17724609 C1.46746059 20.38672276 1.5254634 22.59557448 1.5859375 24.8046875 C1.59748871 25.49432587 1.60903992 26.18396423 1.62094116 26.89450073 C1.64951022 30.8920154 1.64951022 30.8920154 4 34 C7.58343976 34.16677282 7.58343976 34.16677282 11 34 C9 36 9 36 5.5 36.3125 C4.345 36.209375 3.19 36.10625 2 36 C-0.42869909 32.35695136 -0.25675675 29.69277661 -0.1953125 25.48828125 C-0.1924826 24.76005661 -0.18965271 24.03183197 -0.18673706 23.28153992 C-0.17555257 20.95835863 -0.15045166 18.63556453 -0.125 16.3125 C-0.11496794 14.7363337 -0.10584248 13.16016135 -0.09765625 11.58398438 C-0.07561896 7.72250733 -0.04110141 3.86131929 0 0 Z " fill="#5CF4ED" transform="translate(260,673)"/>
<path d="M0 0 C0.66 0 1.32 0 2 0 C0.64147869 3.08693704 -0.84510953 5.08641734 -3.375 7.3125 C-3.96023438 7.84488281 -4.54546875 8.37726563 -5.1484375 8.92578125 C-7 10 -7 10 -9.1171875 9.796875 C-11.60753152 8.74287048 -12.55625806 7.23780001 -14 5 C-13.67 4.34 -13.34 3.68 -13 3 C-12.38125 3.66 -11.7625 4.32 -11.125 5 C-9.24362573 7.2284549 -9.24362573 7.2284549 -7 7 C-5.29115995 5.37660195 -3.62553283 3.70680947 -2 2 C-1.34 1.34 -0.68 0.68 0 0 Z " fill="#175255" transform="translate(346,304)"/>
<path d="M0 0 C0 0.33 0 0.66 0 1 C-0.94875 1.28875 -1.8975 1.5775 -2.875 1.875 C-6.05211578 2.76825109 -6.05211578 2.76825109 -8 5 C-8.36831081 6.93257855 -8.36831081 6.93257855 -8.4140625 9.1328125 C-8.45273437 9.93847656 -8.49140625 10.74414062 -8.53125 11.57421875 C-8.5621875 12.41597656 -8.593125 13.25773437 -8.625 14.125 C-8.66367187 14.97449219 -8.70234375 15.82398438 -8.7421875 16.69921875 C-8.83656494 18.79911684 -8.91937586 20.89952891 -9 23 C-9.33 23 -9.66 23 -10 23 C-10.08706892 19.72933434 -10.14041241 16.45896635 -10.1875 13.1875 C-10.21263672 12.25873047 -10.23777344 11.32996094 -10.26367188 10.37304688 C-10.27333984 9.48037109 -10.28300781 8.58769531 -10.29296875 7.66796875 C-10.3086792 6.84578857 -10.32438965 6.0236084 -10.34057617 5.17651367 C-10 3 -10 3 -8.7121582 1.2199707 C-5.96698552 -0.7360578 -3.25588442 -0.18429534 0 0 Z " fill="#FAFDFD" transform="translate(270,425)"/>
<path d="M0 0 C1.32 0 2.64 0 4 0 C2.65515549 4.03453354 0.51870529 4.72319069 -3 7 C-3.7425 7.7425 -4.485 8.485 -5.25 9.25 C-5.8275 9.8275 -6.405 10.405 -7 11 C-7.66 11 -8.32 11 -9 11 C-7.62011743 7.78724312 -6.09467624 5.9893602 -3.375 3.8125 C-2.23489161 2.89343303 -1.10537887 1.96055651 0 1 C0 0.67 0 0.34 0 0 Z " fill="#154547" transform="translate(681,301)"/>
<path d="M0 0 C0.66 0.33 1.32 0.66 2 1 C0.58972554 2.46451579 -0.82848796 3.9213893 -2.25 5.375 C-3.03890625 6.18710937 -3.8278125 6.99921875 -4.640625 7.8359375 C-7.80564953 10.73895669 -9.68552859 12 -14 12 C-12.41856529 10.56041153 -10.83477221 9.12341355 -9.25 7.6875 C-8.36828125 6.88699219 -7.4865625 6.08648438 -6.578125 5.26171875 C-4.44550672 3.39083089 -2.29812057 1.65915714 0 0 Z " fill="#74DFD4" transform="translate(327,687)"/>
<path d="M0 0 C0.33 0 0.66 0 1 0 C1 1.98 1 3.96 1 6 C-0.32 6.33 -1.64 6.66 -3 7 C-3 7.66 -3 8.32 -3 9 C-4.65 9 -6.3 9 -8 9 C-7.67 8.01 -7.34 7.02 -7 6 C-5.68 6 -4.36 6 -3 6 C-2.690625 5.195625 -2.38125 4.39125 -2.0625 3.5625 C-1 1 -1 1 0 0 Z " fill="#1B3639" transform="translate(701,255)"/>
<path d="M0 0 C0.66 0 1.32 0 2 0 C0.57753605 3.69840628 -1.80988455 5.85632808 -4.6015625 8.5390625 C-6.19613266 10.20489837 -7.17270218 11.84902568 -8 14 C-8.99 13.34 -9.98 12.68 -11 12 C-11 11.34 -11 10.68 -11 10 C-9.56015998 9.06242975 -8.11775902 8.12845953 -6.66015625 7.21875 C-4.85888584 5.89640561 -3.63240606 4.49967215 -2.25 2.75 C-1.5075 1.8425 -0.765 0.935 0 0 Z " fill="#AAE2E1" transform="translate(622,250)"/>
<path d="M0 0 C0.66 0.33 1.32 0.66 2 1 C-2.38130557 5.58146674 -6.54843278 9.72905967 -12 13 C-12 12.01 -12 11.02 -12 10 C-9.62890625 7.7734375 -9.62890625 7.7734375 -6.5625 5.375 C-5.55316406 4.57835937 -4.54382813 3.78171875 -3.50390625 2.9609375 C-2.67761719 2.31382812 -1.85132813 1.66671875 -1 1 C-0.67 0.67 -0.34 0.34 0 0 Z " fill="#8AE3DB" transform="translate(415,613)"/>
<path d="M0 0 C0.66 0 1.32 0 2 0 C0.55218207 3.44428265 -1.27694609 5.36130962 -4.125 7.75 C-5.21167969 8.67039062 -5.21167969 8.67039062 -6.3203125 9.609375 C-6.87460937 10.06828125 -7.42890625 10.5271875 -8 11 C-8.66 10.67 -9.32 10.34 -10 10 C-8.83608372 7.67216743 -7.55663134 6.65832128 -5.5625 5 C-3.62370062 3.38096085 -1.78795167 1.78795167 0 0 Z " fill="#245556" transform="translate(413,263)"/>
<path d="M0 0 C2.3125 0.875 2.3125 0.875 4.3125 1.875 C3.9825 2.865 3.6525 3.855 3.3125 4.875 C2.3225 4.215 1.3325 3.555 0.3125 2.875 C-3.48094475 3.11973837 -5.22330477 5.14678385 -7.6875 7.875 C-7.6875 4.875 -7.6875 4.875 -5.5 2.125 C-2.6875 -0.125 -2.6875 -0.125 0 0 Z " fill="#519892" transform="translate(708.6875,256.125)"/>
<path d="M0 0 C0 2.6506582 -0.36825703 4.47302813 -1 7 C-1 7.99 -1 8.98 -1 10 C-2.98 9.01 -4.96 8.02 -7 7 C-4.66666667 4.66666667 -2.33333333 2.33333333 0 0 Z " fill="#77DFD9" transform="translate(333,296)"/>
<path d="M0 0 C0.66 0.33 1.32 0.66 2 1 C0.75645114 2.29787866 -0.4951264 3.58806759 -1.75 4.875 C-2.44609375 5.59429688 -3.1421875 6.31359375 -3.859375 7.0546875 C-5.85122217 8.86479679 -7.5427658 9.94848086 -10 11 C-8.55218207 7.55571735 -6.72305391 5.63869038 -3.875 3.25 C-3.15054687 2.63640625 -2.42609375 2.0228125 -1.6796875 1.390625 C-0.84824219 0.70226562 -0.84824219 0.70226562 0 0 Z " fill="#75E1D8" transform="translate(308,703)"/>
<path d="M0 0 C0.99 0.33 1.98 0.66 3 1 C0.13463296 5.07763771 -2.43041625 7.02677065 -7 9 C-7 8.34 -7 7.68 -7 7 C-6.34 7 -5.68 7 -5 7 C-4.731875 6.401875 -4.46375 5.80375 -4.1875 5.1875 C-3.01506533 3.02775192 -1.80630718 1.64209744 0 0 Z " fill="#194347" transform="translate(666,292)"/>
<path d="M0 0 C0.33 1.32 0.66 2.64 1 4 C-0.98 5.32 -2.96 6.64 -5 8 C-5 6.35 -5 4.7 -5 3 C-3.35 2.67 -1.7 2.34 0 2 C0 1.34 0 0.68 0 0 Z " fill="#225150" transform="translate(707,252)"/>
<path d="M0 0 C0.66 0.33 1.32 0.66 2 1 C1.34 2.98 0.68 4.96 0 7 C-2.475 6.01 -2.475 6.01 -5 5 C-3.35 3.35 -1.7 1.7 0 0 Z " fill="#7CDDDA" transform="translate(663,298)"/>
<path d="M0 0 C0.99 0.99 1.98 1.98 3 3 C2.67 3.99 2.34 4.98 2 6 C0.02 6 -1.96 6 -4 6 C-2.68 4.02 -1.36 2.04 0 0 Z " fill="#9FE1DE" transform="translate(404,250)"/>
<path d="M0 0 C0.66 0.33 1.32 0.66 2 1 C-2.455 4.465 -2.455 4.465 -7 8 C-7.66 7.67 -8.32 7.34 -9 7 C-7.87720538 6.01830524 -6.75168527 5.03972702 -5.625 4.0625 C-4.68527344 3.24458984 -4.68527344 3.24458984 -3.7265625 2.41015625 C-2 1 -2 1 0 0 Z " fill="#80DFD7" transform="translate(527,555)"/>
<path d="M0 0 C0 4.38968456 -2.12805101 5.76905739 -5 9 C-5.33 7.68 -5.66 6.36 -6 5 C-4.02 3.35 -2.04 1.7 0 0 Z " fill="#96EEE8" transform="translate(561,421)"/>
<path d="M0 0 C1.32 1.65 2.64 3.3 4 5 C3.67 5.66 3.34 6.32 3 7 C0.03 6.505 0.03 6.505 -3 6 C-3 5.34 -3 4.68 -3 4 C-2.34 4 -1.68 4 -1 4 C-0.67 2.68 -0.34 1.36 0 0 Z " fill="#172F33" transform="translate(707,248)"/>
<path d="M0 0 C1.134375 0.020625 2.26875 0.04125 3.4375 0.0625 C3.4375 0.3925 3.4375 0.7225 3.4375 1.0625 C2.07625 1.495625 2.07625 1.495625 0.6875 1.9375 C-1.88452908 2.82781776 -4.17596766 3.77744413 -6.5625 5.0625 C-4.14811644 0.07277397 -4.14811644 0.07277397 0 0 Z " fill="#EBF2F4" transform="translate(266.5625,424.9375)"/>
<path d="M0 0 C2.97 1.98 2.97 1.98 6 4 C2.125 7 2.125 7 1 7 C0.67 4.69 0.34 2.38 0 0 Z " fill="#6DEBE3" transform="translate(676,298)"/>
<path d="M0 0 C0.66 0 1.32 0 2 0 C0.70700306 2.88437779 -0.65941363 4.87219421 -3 7 C-3.66 6.67 -4.32 6.34 -5 6 C-3.38405168 3.95880212 -1.7143618 1.95927063 0 0 Z " fill="#204448" transform="translate(629,264)"/>
<path d="M0 0 C0.7734375 0.495 0.7734375 0.495 1.5625 1 C4.78026512 2.32010877 7.5570528 2.13242105 11 2 C9 4 9 4 5.375 4.125 C4.26125 4.08375 3.1475 4.0425 2 4 C1.34 2.68 0.68 1.36 0 0 Z " fill="#4DD6CF" transform="translate(260,705)"/>
<path d="M0 0 C0.66 0.33 1.32 0.66 2 1 C-1.465 3.97 -1.465 3.97 -5 7 C-5.66 6.67 -6.32 6.34 -7 6 C-4.69 4.02 -2.38 2.04 0 0 Z " fill="#80E5DB" transform="translate(349,669)"/>
<path d="M0 0 C1.32 0.33 2.64 0.66 4 1 C3.01 1.66 2.02 2.32 1 3 C1.33 3.66 1.66 4.32 2 5 C0.35 4.67 -1.3 4.34 -3 4 C-3 3.34 -3 2.68 -3 2 C-2.01 2 -1.02 2 0 2 C0 1.34 0 0.68 0 0 Z " fill="#1B4C4F" transform="translate(326,299)"/>
</svg>
